# xmcd
#
# Track frame offsets:
#	182
#	18885
#	41017
#	61350
#	76905
#	91715
#	106907
#	115737
#	130110
#	155270
#	175157
#	190902
#	208480
#	222217
#	237915
#	249135
#
# Disc length: 3555 seconds
#
# Revision: 1
# Processed by: cddbd v1.5.2PL0 Copyright (c) Steve Scherf et al.
# Submitted via: audiograbber 1.81.02
#
DISCID=c90de110
DTITLE=Diverse Artiesten - 030 =16 Instrumental Favorites
DYEAR=1900
DGENRE=Instrumental
TTITLE0=LAMBADA
TTITLE1=UN CANTO A GALICIA
TTITLE2=TICKET TO THE TROPICS
TTITLE3=MY SPECIAL PRAYER
TTITLE4=MORE THAN I CAN SAY
TTITLE5=NO WOMAN NO CRY
TTITLE6=LA DANCE DE ZORBA
TTITLE7=BALLADE POUR ADELINE
TTITLE8=NIKITA
TTITLE9=BRIDGE OVER TROUBLED WATER
TTITLE10=IN THE MOOD
TTITLE11=STRANGER IN THE NIGHT
TTITLE12=WHEN A MAN LOVES A WOMAN
TTITLE13=VOLERA
TTITLE14=A BANDA 
TTITLE15=SUN OF JAMAICA
EXTD=
EXTT0=
EXTT1=
EXTT2=
EXTT3=
EXTT4=
EXTT5=
EXTT6=
EXTT7=
EXTT8=
EXTT9=
EXTT10=
EXTT11=
EXTT12=
EXTT13=
EXTT14=
EXTT15=
PLAYORDER=
